HIERARCHY
ROOT Hips
{
	OFFSET 0.000000 0.000000 0.000000
	CHANNELS 6 Xposition Yposition Zposition Xrotation Yrotation Zrotation
	JOINT Thigh.L
	{
		OFFSET 0.053423 0.030106 -0.090485
		CHANNELS 3 Xrotation Yrotation Zrotation
		JOINT Shin.L
		{
			OFFSET 0.052368 0.016228 -0.403484
			CHANNELS 3 Xrotation Yrotation Zrotation
			JOINT Foot.L
			{
				OFFSET -0.040962 0.032036 -0.423239
				CHANNELS 3 Xrotation Yrotation Zrotation
				JOINT Toe.L
				{
					OFFSET 0.044244 -0.117596 -0.062490
					CHANNELS 3 Xrotation Yrotation Zrotation
					End Site
					{
						OFFSET 0.000000 0.050000 0.000000
					}
				}
			}
		}
	}
	JOINT Thigh.R
	{
		OFFSET -0.058656 0.027517 -0.100672
		CHANNELS 3 Xrotation Yrotation Zrotation
		JOINT Shin.R
		{
			OFFSET -0.041950 0.021481 -0.387504
			CHANNELS 3 Xrotation Yrotation Zrotation
			JOINT Foot.R
			{
				OFFSET 0.015469 0.020749 -0.431927
				CHANNELS 3 Xrotation Yrotation Zrotation
				JOINT Toe.R
				{
					OFFSET -0.036769 -0.118380 -0.062560
					CHANNELS 3 Xrotation Yrotation Zrotation
					End Site
					{
						OFFSET 0.000000 0.050000 0.000000
					}
				}
			}
		}
	}
	JOINT Spine
	{
		OFFSET -0.001882 0.019243 0.106930
		CHANNELS 3 Xrotation Yrotation Zrotation
		JOINT Spine.2
		{
			OFFSET 0.006427 0.002488 0.130899
			CHANNELS 3 Xrotation Yrotation Zrotation
			JOINT Chest
			{
				OFFSET -0.010244 -0.023139 0.048463
				CHANNELS 3 Xrotation Yrotation Zrotation
				JOINT Neck
				{
					OFFSET -0.009337 0.029265 0.162583
					CHANNELS 3 Xrotation Yrotation Zrotation
					JOINT Head
					{
						OFFSET 0.022056 -0.022623 0.167611
						CHANNELS 3 Xrotation Yrotation Zrotation
						End Site
						{
							OFFSET 0.000000 0.050000 0.000000
						}
					}
				}
				JOINT Clavicle.L
				{
					OFFSET 0.043116 0.008489 0.082986
					CHANNELS 3 Xrotation Yrotation Zrotation
					JOINT UpperArm.L
					{
						OFFSET 0.105381 0.014278 0.060139
						CHANNELS 3 Xrotation Yrotation Zrotation
						JOINT ForeArm.L
						{
							OFFSET 0.260479 0.034871 -0.074381
							CHANNELS 3 Xrotation Yrotation Zrotation
							JOINT Hand.L
							{
								OFFSET 0.258319 0.006327 0.020769
								CHANNELS 3 Xrotation Yrotation Zrotation
								JOINT Thumb1.L
								{
									OFFSET 0.154578 0.002929 0.009614
									CHANNELS 3 Xrotation Yrotation Zrotation
									JOINT Thumb2.L
									{
										OFFSET 0.029895 0.000732 0.002404
										CHANNELS 3 Xrotation Yrotation Zrotation
										End Site
										{
											OFFSET 0.024912 0.000610 0.002003
										}
									}
								}
								JOINT Index1.L
								{
									OFFSET 0.137578 0.002929 0.009614
									CHANNELS 3 Xrotation Yrotation Zrotation
									JOINT Index2.L
									{
										OFFSET 0.029895 0.000732 0.002404
										CHANNELS 3 Xrotation Yrotation Zrotation
										JOINT Index3.L
										{
											OFFSET 0.021923 0.000537 0.001763
											CHANNELS 3 Xrotation Yrotation Zrotation
											End Site
											{
												OFFSET 0.017937 0.000439 0.001442
											}
										}
									}
								}
								JOINT Middle1.L
								{
									OFFSET 0.119578 0.002929 0.009614
									CHANNELS 3 Xrotation Yrotation Zrotation
									JOINT Middle2.L
									{
										OFFSET 0.030891 0.000757 0.002484
										CHANNELS 3 Xrotation Yrotation Zrotation
										JOINT Middle3.L
										{
											OFFSET 0.021923 0.000537 0.001763
											CHANNELS 3 Xrotation Yrotation Zrotation
											End Site
											{
												OFFSET 0.017937 0.000439 0.001442
											}
										}
									}
								}
								JOINT Ring1.L
								{
									OFFSET 0.101578 0.002929 0.009614
									CHANNELS 3 Xrotation Yrotation Zrotation
									JOINT Ring2.L
									{
										OFFSET 0.028898 0.000708 0.002323
										CHANNELS 3 Xrotation Yrotation Zrotation
										JOINT Ring3.L
										{
											OFFSET 0.019930 0.000488 0.001602
											CHANNELS 3 Xrotation Yrotation Zrotation
											End Site
											{
												OFFSET 0.016940 0.000415 0.001362
											}
										}
									}
								}
								JOINT Pinky1.L
								{
									OFFSET 0.085578 0.002929 0.009614
									CHANNELS 3 Xrotation Yrotation Zrotation
									JOINT Pinky2.L
									{
										OFFSET 0.023916 0.000586 0.001923
										CHANNELS 3 Xrotation Yrotation Zrotation
										JOINT Pinky3.L
										{
											OFFSET 0.016940 0.000415 0.001362
											CHANNELS 3 Xrotation Yrotation Zrotation
											End Site
											{
												OFFSET 0.013951 0.000342 0.001122
											}
										}
									}
								}
							}
						}
					}
				}
				JOINT Clavicle.R
				{
					OFFSET -0.041177 0.014534 0.082432
					CHANNELS 3 Xrotation Yrotation Zrotation
					JOINT UpperArm.R
					{
						OFFSET -0.090909 0.009349 0.055976
						CHANNELS 3 Xrotation Yrotation Zrotation
						JOINT ForeArm.R
						{
							OFFSET -0.276231 0.022341 -0.042196
							CHANNELS 3 Xrotation Yrotation Zrotation
							JOINT Hand.R
							{
								OFFSET -0.255216 0.018679 -0.003562
								CHANNELS 3 Xrotation Yrotation Zrotation
								JOINT Thumb1.R
								{
									OFFSET -0.154668 0.008758 -0.001670
									CHANNELS 3 Xrotation Yrotation Zrotation
									JOINT Thumb2.R
									{
										OFFSET -0.029917 0.002190 -0.000418
										CHANNELS 3 Xrotation Yrotation Zrotation
										End Site
										{
											OFFSET -0.024931 0.001825 -0.000348
										}
									}
								}
								JOINT Index1.R
								{
									OFFSET -0.137668 0.008758 -0.001670
									CHANNELS 3 Xrotation Yrotation Zrotation
									JOINT Index2.R
									{
										OFFSET -0.029917 0.002190 -0.000418
										CHANNELS 3 Xrotation Yrotation Zrotation
										JOINT Index3.R
										{
											OFFSET -0.021939 0.001606 -0.000306
											CHANNELS 3 Xrotation Yrotation Zrotation
											End Site
											{
												OFFSET -0.017950 0.001314 -0.000251
											}
										}
									}
								}
								JOINT Middle1.R
								{
									OFFSET -0.119668 0.008758 -0.001670
									CHANNELS 3 Xrotation Yrotation Zrotation
									JOINT Middle2.R
									{
										OFFSET -0.030914 0.002263 -0.000431
										CHANNELS 3 Xrotation Yrotation Zrotation
										JOINT Middle3.R
										{
											OFFSET -0.021939 0.001606 -0.000306
											CHANNELS 3 Xrotation Yrotation Zrotation
											End Site
											{
												OFFSET -0.017950 0.001314 -0.000251
											}
										}
									}
								}
								JOINT Ring1.R
								{
									OFFSET -0.101668 0.008758 -0.001670
									CHANNELS 3 Xrotation Yrotation Zrotation
									JOINT Ring2.R
									{
										OFFSET -0.028920 0.002117 -0.000404
										CHANNELS 3 Xrotation Yrotation Zrotation
										JOINT Ring3.R
										{
											OFFSET -0.019945 0.001460 -0.000278
											CHANNELS 3 Xrotation Yrotation Zrotation
											End Site
											{
												OFFSET -0.016953 0.001241 -0.000237
											}
										}
									}
								}
								JOINT Pinky1.R
								{
									OFFSET -0.085668 0.008758 -0.001670
									CHANNELS 3 Xrotation Yrotation Zrotation
									JOINT Pinky2.R
									{
										OFFSET -0.023934 0.001752 -0.000334
										CHANNELS 3 Xrotation Yrotation Zrotation
										JOINT Pinky3.R
										{
											OFFSET -0.016953 0.001241 -0.000237
											CHANNELS 3 Xrotation Yrotation Zrotation
											End Site
											{
												OFFSET -0.013961 0.001022 -0.000195
											}
										}
									}
								}
							}
						}
					}
				}
			}
		}
	}
}
MOTION
Frames: 4
Frame Time: 0.04166667
-0.905236611 -0.269449642 1.062111 3.181029 7.273568 5.368101 -29.238856 -10.802040 -0.051316 28.799363 3.354528 8.310982 -5.236810 5.380408 8.184894 -2.280222 -6.927601 0.050050 -29.291185 0.043087 0.574377 29.280600 -0.369421 -8.168459 -0.974294 -3.389256 -5.662751 1.559912 -8.727281 -0.294231 36.027876 6.720025 0.475493 10.757845 1.087461 -8.860543 -7.441294 -0.978450 -2.568737 20.106058 16.399051 -1.957110 1.753333 -8.135221 9.341774 4.718438 11.496389 -25.348269 -0.240275 33.996880 -21.971493 -7.161753 8.860476 -50.488833 -19.677413 -16.274580 -11.827173 0.000000 0.000000 0.000000 0.000000 0.000000 0.000000 0.000000 0.000000 0.000000 0.000000 0.000000 0.000000 0.000000 0.000000 0.000000 0.000000 0.000000 0.000000 0.000000 0.000000 0.000000 0.000000 0.000000 0.000000 0.000000 0.000000 0.000000 0.000000 0.000000 0.000000 0.000000 0.000000 0.000000 0.000000 0.000000 0.000000 0.000000 0.000000 0.000000 0.000000 0.000000 0.000000 1.371529 2.887700 12.758175 17.947093 -43.252132 7.113608 0.506881 -2.082130 116.263817 -34.701814 3.742593 13.120040 0.000000 0.000000 0.000000 0.000000 0.000000 0.000000 0.000000 0.000000 0.000000 0.000000 0.000000 0.000000 0.000000 0.000000 0.000000 0.000000 0.000000 0.000000 0.000000 0.000000 0.000000 0.000000 0.000000 0.000000 0.000000 0.000000 0.000000 0.000000 0.000000 0.000000 0.000000 0.000000 0.000000 0.000000 0.000000 0.000000 0.000000 0.000000 0.000000 0.000000 0.000000 0.000000
-0.899751595 -0.267023529 1.061639 3.257925 7.212640 4.702536 -29.454145 -12.155179 0.572897 29.543228 4.065515 8.652910 -5.005635 6.061974 7.930615 -2.497780 -7.076134 -0.134067 -29.490837 -0.687352 0.429467 29.139118 -0.579195 -7.217554 -0.907691 -2.678288 -5.787006 1.460779 -9.244552 -0.398769 35.629759 6.546953 -0.699482 10.264716 1.372713 -9.864389 -7.357781 -0.591741 -3.312549 20.698262 17.468812 -2.815120 2.608856 -8.377395 11.522158 5.121012 11.778031 -25.710865 2.535563 37.643582 -25.558537 -5.647737 7.427814 -51.213300 -19.078099 -15.816175 -12.083363 0.000000 0.000000 0.000000 0.000000 0.000000 0.000000 0.000000 0.000000 0.000000 0.000000 0.000000 0.000000 0.000000 0.000000 0.000000 0.000000 0.000000 0.000000 0.000000 0.000000 0.000000 0.000000 0.000000 0.000000 0.000000 0.000000 0.000000 0.000000 0.000000 0.000000 0.000000 0.000000 0.000000 0.000000 0.000000 0.000000 0.000000 0.000000 0.000000 0.000000 0.000000 0.000000 2.061096 3.721118 10.757224 17.397979 -40.662641 3.104430 1.195834 -2.539067 115.595452 -33.051834 2.165339 13.071564 0.000000 0.000000 0.000000 0.000000 0.000000 0.000000 0.000000 0.000000 0.000000 0.000000 0.000000 0.000000 0.000000 0.000000 0.000000 0.000000 0.000000 0.000000 0.000000 0.000000 0.000000 0.000000 0.000000 0.000000 0.000000 0.000000 0.000000 0.000000 0.000000 0.000000 0.000000 0.000000 0.000000 0.000000 0.000000 0.000000 0.000000 0.000000 0.000000 0.000000 0.000000 0.000000
-0.897015203 -0.265475334 1.062007 3.104859 7.354406 4.095172 -29.066269 -12.355638 0.517914 29.295615 4.017766 8.090278 -4.962759 5.789183 8.260525 -2.575497 -7.125672 -0.123153 -29.592276 -0.988096 0.467473 29.204239 -0.673601 -6.718952 -0.286826 -2.487424 -5.762387 1.361959 -9.338707 -0.406175 35.241370 6.398049 -1.054498 10.131730 1.589182 -10.188411 -7.023815 -0.367013 -3.627079 20.392402 17.879295 -2.538242 2.638772 -8.229124 12.735858 4.896122 11.607803 -25.817265 3.907191 38.945924 -27.157969 -4.834174 7.261932 -51.386860 -20.127926 -15.928094 -12.079518 0.000000 0.000000 0.000000 0.000000 0.000000 0.000000 0.000000 0.000000 0.000000 0.000000 0.000000 0.000000 0.000000 0.000000 0.000000 0.000000 0.000000 0.000000 0.000000 0.000000 0.000000 0.000000 0.000000 0.000000 0.000000 0.000000 0.000000 0.000000 0.000000 0.000000 0.000000 0.000000 0.000000 0.000000 0.000000 0.000000 0.000000 0.000000 0.000000 0.000000 0.000000 0.000000 2.129112 3.915407 9.753418 17.333954 -39.447643 1.531850 1.505008 -2.777493 115.873544 -33.015884 2.121043 13.365588 0.000000 0.000000 0.000000 0.000000 0.000000 0.000000 0.000000 0.000000 0.000000 0.000000 0.000000 0.000000 0.000000 0.000000 0.000000 0.000000 0.000000 0.000000 0.000000 0.000000 0.000000 0.000000 0.000000 0.000000 0.000000 0.000000 0.000000 0.000000 0.000000 0.000000 0.000000 0.000000 0.000000 0.000000 0.000000 0.000000 0.000000 0.000000 0.000000 0.000000 0.000000 0.000000
-0.895525694 -0.264008026 1.062710 3.308338 7.179123 3.847955 -29.027948 -12.637731 0.573127 28.871707 3.999241 7.958347 -4.327098 6.066015 8.084036 -2.471717 -7.047663 -0.099897 -29.677645 -1.194772 0.499058 28.882746 -0.893022 -6.826415 -0.501883 -2.261104 -5.625162 1.351816 -9.323374 -0.430308 35.087268 6.151965 -1.082390 10.017483 1.532572 -10.305575 -6.902889 -0.395139 -3.731783 20.322295 17.902415 -2.503260 2.696413 -8.107775 12.906230 4.892239 11.824076 -25.697761 4.174334 39.449646 -27.425197 -4.554573 7.036737 -51.732383 -20.152983 -16.014693 -12.173589 0.000000 0.000000 0.000000 0.000000 0.000000 0.000000 0.000000 0.000000 0.000000 0.000000 0.000000 0.000000 0.000000 0.000000 0.000000 0.000000 0.000000 0.000000 0.000000 0.000000 0.000000 0.000000 0.000000 0.000000 0.000000 0.000000 0.000000 0.000000 0.000000 0.000000 0.000000 0.000000 0.000000 0.000000 0.000000 0.000000 0.000000 0.000000 0.000000 0.000000 0.000000 0.000000 2.142747 3.735906 9.358865 17.204967 -39.431613 1.009194 1.144620 -2.604883 116.780611 -32.896601 2.290454 13.400777 0.000000 0.000000 0.000000 0.000000 0.000000 0.000000 0.000000 0.000000 0.000000 0.000000 0.000000 0.000000 0.000000 0.000000 0.000000 0.000000 0.000000 0.000000 0.000000 0.000000 0.000000 0.000000 0.000000 0.000000 0.000000 0.000000 0.000000 0.000000 0.000000 0.000000 0.000000 0.000000 0.000000 0.000000 0.000000 0.000000 0.000000 0.000000 0.000000 0.000000 0.000000 0.000000
